Coordinates
version=1
nRows=10
nColumns=40
inDegrees=yes

Units are S.I. units (second, meters, Newtons, ...)
If the header above contains a line with 'inDegrees', this indicates whether rotational values are in degrees (yes) or radians (no).

endheader
time	pelvis_tilt	pelvis_list	pelvis_rotation	pelvis_tx	pelvis_ty	pelvis_tz	hip_flexion_r	hip_adduction_r	hip_rotation_r	knee_angle_r	knee_angle_r_beta	ankle_angle_r	subtalar_angle_r	mtp_angle_r	hip_flexion_l	hip_adduction_l	hip_rotation_l	knee_angle_l	knee_angle_l_beta	ankle_angle_l	subtalar_angle_l	mtp_angle_l	lumbar_extension	lumbar_bending	lumbar_rotation	arm_flex_r	arm_add_r	arm_rot_r	elbow_flex_r	pro_sup_r	wrist_flex_r	wrist_dev_r	arm_flex_l	arm_add_l	arm_rot_l	elbow_flex_l	pro_sup_l	wrist_flex_l	wrist_dev_l
      1.04400000	     19.17748017	      4.05971227	      5.22616249	      1.41119398	      0.96685526	     -0.31869414	      6.00416434	     -6.27550226	     -8.27017535	     22.51636728	      0.39298474	    -11.12957882	      0.00000000	      0.00000000	    -29.19832695	      5.99983586	      6.81025060	      9.13802692	      0.15948866	     -2.29372272	      0.00000000	      0.00000000	    -32.58089953	     -1.97830293	     -9.39464436	     -1.30117388	    -14.83635853	      4.53598370	     39.50664141	     75.63486865	      0.00000000	      0.00000000	     13.39921432	    -26.98413788	     29.65492433	     57.71452524	     77.30265403	      0.00000000	      0.00000000
      1.04800000	     18.97214266	      4.19930442	      5.26602192	      1.41578230	      0.96562549	     -0.31866679	      6.56727766	     -6.44835942	     -8.77662870	     21.68152095	      0.37841393	    -11.81925095	      0.00000000	      0.00000000	    -29.24575949	      6.09960397	      6.77818662	      9.29808833	      0.16228226	     -1.99119189	      0.00000000	      0.00000000	    -32.45452754	     -2.10504741	     -9.52301973	     -1.23281831	    -14.73389106	      4.42822890	     39.31885324	     75.53849149	      0.00000000	      0.00000000	     13.54438025	    -27.11475149	     29.69792562	     58.08354816	     77.28743240	      0.00000000	      0.00000000
      1.05200000	     18.71217595	      4.31459291	      5.18300466	      1.42074470	      0.96412237	     -0.31875778	      7.21350694	     -6.60215334	     -9.18247406	     21.02305467	      0.36692152	    -11.80355599	      0.00000000	      0.00000000	    -29.30324047	      6.26961954	      6.56819159	      9.35487984	      0.16327345	     -1.82565187	      0.00000000	      0.00000000	    -32.22153859	     -2.25159675	     -9.50951957	     -1.29298852	    -14.74274960	      4.42918073	     39.24856431	     75.51756591	      0.00000000	      0.00000000	     13.67262098	    -27.10905051	     29.73286211	     58.33867532	     77.28308863	      0.00000000	      0.00000000
      1.05600000	     18.46866184	      4.43800009	      5.14968426	      1.42547431	      0.96278705	     -0.31877134	      7.81078628	     -6.72938793	     -9.52989803	     20.27409588	      0.35384973	    -12.08680561	      0.00000000	      0.00000000	    -29.34659803	      6.39941072	      6.49286165	      9.46169845	      0.16513779	     -1.56686402	      0.00000000	      0.00000000	    -32.05310094	     -2.36801839	     -9.55798786	     -1.25323254	    -14.66954079	      4.30995575	     39.03675021	     75.45961419	      0.00000000	      0.00000000	     13.86480849	    -27.03620906	     29.63555571	     58.41519133	     77.27686719	      0.00000000	      0.00000000
      1.06000000	     18.30686165	      4.49238316	      5.31922990	      1.43012257	      0.96162282	     -0.31872488	      8.12636244	     -6.73741468	     -9.85842009	     19.16448179	      0.33448331	    -12.76834477	      0.00000000	      0.00000000	    -29.38998754	      6.33592166	      6.61880527	      9.73705835	      0.16994373	     -1.18783482	      0.00000000	      0.00000000	    -31.99675552	     -2.34151201	     -9.80098160	     -1.14258465	    -14.51104493	      4.15307865	     38.80920417	     75.37085300	      0.00000000	      0.00000000	     13.97193339	    -27.11223298	     29.46257731	     58.64730197	     77.30674176	      0.00000000	      0.00000000
      1.06400000	     18.05558110	      4.59041212	      5.24737335	      1.43502165	      0.96003642	     -0.31881455	      8.76283733	     -6.83957211	    -10.17504521	     18.58004513	      0.32428296	    -12.73765592	      0.00000000	      0.00000000	    -29.42890586	      6.46637254	      6.40625850	      9.83831323	      0.17171096	     -1.01758450	      0.00000000	      0.00000000	    -31.77320401	     -2.45570144	     -9.77761517	     -1.16899078	    -14.53491963	      4.17849825	     38.72812790	     75.34813281	      0.00000000	      0.00000000	     14.07117266	    -27.15443289	     29.53659409	     58.94779889	     77.30724817	      0.00000000	      0.00000000
      1.06800000	     17.89690987	      4.65110131	      5.22899467	      1.43965513	      0.95881985	     -0.31853926	      9.10797108	     -6.79028910	    -10.16131803	     17.54976061	      0.30630111	    -13.22137970	      0.00000000	      0.00000000	    -29.44839129	      6.49772844	      6.23201363	     10.14265537	      0.17702273	     -0.64700977	      0.00000000	      0.00000000	    -31.70713595	     -2.52186651	     -9.86968956	     -1.01573094	    -14.40196606	      4.10280318	     38.48974640	     75.19861082	      0.00000000	      0.00000000	     14.22570722	    -27.14816013	     29.36508814	     59.05434195	     77.28812081	      0.00000000	      0.00000000
      1.07200000	     17.64438138	      4.72224519	      5.16117467	      1.44462925	      0.95726991	     -0.31841449	      9.73014929	     -6.83881102	    -10.39599054	     16.99488812	      0.29661675	    -13.18096293	      0.00000000	      0.00000000	    -29.46190458	      6.58484168	      6.06805527	     10.28320542	      0.17947579	     -0.49047296	      0.00000000	      0.00000000	    -31.48390507	     -2.63226284	     -9.83926375	     -1.04669724	    -14.38580366	      4.11732248	     38.40114328	     75.16396918	      0.00000000	      0.00000000	     14.34117212	    -27.16231110	     29.38336797	     59.25342523	     77.30241839	      0.00000000	      0.00000000
      1.07600000	     17.42697128	      4.83132999	      5.07291718	      1.44949514	      0.95581824	     -0.31829801	     10.25853807	     -6.89638539	    -10.49921759	     16.33930368	      0.28517465	    -13.24089951	      0.00000000	      0.00000000	    -29.48514251	      6.71740992	      5.94358481	     10.48371801	      0.18297540	     -0.24789015	      0.00000000	      0.00000000	    -31.32181460	     -2.77325839	     -9.84378825	     -1.03760617	    -14.34791990	      4.12722998	     38.29639337	     75.11295099	      0.00000000	      0.00000000	     14.43349697	    -27.25177220	     29.42810254	     59.52027500	     77.32035105	      0.00000000	      0.00000000
      1.08000000	     17.30217952	      4.76468648	      5.05562451	      1.45410386	      0.95450452	     -0.31793787	     10.48345917	     -6.66160644	    -10.15858116	     15.22001555	      0.26563938	    -13.80576132	      0.00000000	      0.00000000	    -29.50533430	      6.61074158	      5.79589157	     10.84299131	      0.18924590	      0.22046733	      0.00000000	      0.00000000	    -31.27735277	     -2.72257112	     -9.83792495	     -0.88616005	    -14.26712623	      4.08496438	     38.08499729	     74.93076714	      0.00000000	      0.00000000	     14.59573626	    -27.30667736	     29.42990252	     59.74115196	     77.28452068	      0.00000000	      0.00000000
